<mxfile host="app.diagrams.net" modified="2023-01-02T20:40:28.149Z" agent="5.0 (Windows NT 10.0; Win64; x64) AppleWebKit/537.36 (KHTML, like Gecko) Chrome/108.0.0.0 Safari/537.36" version="20.7.4" etag="LhxNMUzbWFTHxjZLDgSq" type="github">
  <diagram id="1Y1ot4NXpsam_9F01_-j" name="Page-1">
    <mxGraphModel dx="512" dy="279" grid="1" gridSize="10" guides="1" tooltips="1" connect="1" arrows="1" fold="1" page="1" pageScale="1" pageWidth="1169" pageHeight="827" math="0" shadow="0">
      <root>
        <mxCell id="0" />
        <mxCell id="1" parent="0" />
        <mxCell id="NNe2MkwTKoM-TwKIev49-5" style="edgeStyle=none;rounded=0;orthogonalLoop=1;jettySize=auto;html=1;exitX=1;exitY=0.5;exitDx=0;exitDy=0;exitPerimeter=0;endArrow=oval;endFill=1;" edge="1" parent="1" source="NNe2MkwTKoM-TwKIev49-1">
          <mxGeometry relative="1" as="geometry">
            <mxPoint x="440" y="120" as="targetPoint" />
          </mxGeometry>
        </mxCell>
        <mxCell id="NNe2MkwTKoM-TwKIev49-1" value="" style="pointerEvents=1;verticalLabelPosition=bottom;shadow=0;dashed=0;align=center;html=1;verticalAlign=top;shape=mxgraph.electrical.resistors.resistor_1;" vertex="1" parent="1">
          <mxGeometry x="240" y="110" width="100" height="20" as="geometry" />
        </mxCell>
        <mxCell id="NNe2MkwTKoM-TwKIev49-2" value="" style="pointerEvents=1;verticalLabelPosition=bottom;shadow=0;dashed=0;align=center;html=1;verticalAlign=top;shape=mxgraph.electrical.resistors.resistor_1;direction=south;" vertex="1" parent="1">
          <mxGeometry x="330" y="120" width="20" height="100" as="geometry" />
        </mxCell>
        <mxCell id="NNe2MkwTKoM-TwKIev49-3" value="" style="pointerEvents=1;verticalLabelPosition=bottom;shadow=0;dashed=0;align=center;html=1;verticalAlign=top;shape=mxgraph.electrical.signal_sources.signal_ground;" vertex="1" parent="1">
          <mxGeometry x="317.5" y="210" width="45" height="30" as="geometry" />
        </mxCell>
        <mxCell id="NNe2MkwTKoM-TwKIev49-4" value="&lt;span style=&quot;font-size: 20px;&quot;&gt;24 V&lt;/span&gt;" style="pointerEvents=1;verticalLabelPosition=bottom;shadow=0;dashed=0;align=center;html=1;verticalAlign=top;shape=mxgraph.electrical.signal_sources.vss2;fontSize=24;flipV=1;" vertex="1" parent="1">
          <mxGeometry x="210" y="120" width="60" height="40" as="geometry" />
        </mxCell>
        <mxCell id="NNe2MkwTKoM-TwKIev49-6" value="" style="pointerEvents=1;verticalLabelPosition=bottom;shadow=0;dashed=0;align=center;html=1;verticalAlign=top;shape=mxgraph.electrical.signal_sources.signal_ground;" vertex="1" parent="1">
          <mxGeometry x="415" y="210" width="50" height="30" as="geometry" />
        </mxCell>
        <mxCell id="NNe2MkwTKoM-TwKIev49-7" value="&lt;font style=&quot;font-size: 12px;&quot;&gt;1.8 k&lt;span style=&quot;font-family: sans-serif; text-align: start; background-color: rgb(255, 255, 255);&quot;&gt;Ω&lt;/span&gt;&lt;/font&gt;" style="text;html=1;strokeColor=none;fillColor=none;align=center;verticalAlign=middle;whiteSpace=wrap;rounded=0;" vertex="1" parent="1">
          <mxGeometry x="258.75" y="88" width="62.5" height="30" as="geometry" />
        </mxCell>
        <mxCell id="NNe2MkwTKoM-TwKIev49-9" value="&lt;div style=&quot;text-align: center;&quot;&gt;&lt;span style=&quot;text-align: start; background-color: rgb(251, 251, 251);&quot;&gt;470&amp;nbsp;&lt;/span&gt;&lt;span style=&quot;background-color: rgb(255, 255, 255); font-family: sans-serif; text-align: start;&quot;&gt;Ω&lt;/span&gt;&lt;/div&gt;" style="text;html=1;strokeColor=none;fillColor=none;align=center;verticalAlign=bottom;whiteSpace=wrap;rounded=0;horizontal=0;textDirection=ltr;" vertex="1" parent="1">
          <mxGeometry x="267.5" y="150" width="62.5" height="40" as="geometry" />
        </mxCell>
        <mxCell id="NNe2MkwTKoM-TwKIev49-11" style="edgeStyle=none;rounded=0;orthogonalLoop=1;jettySize=auto;html=1;fontSize=12;fontColor=#000000;endArrow=classic;endFill=1;" edge="1" parent="1">
          <mxGeometry relative="1" as="geometry">
            <mxPoint x="440" y="120" as="targetPoint" />
            <mxPoint x="440" y="150" as="sourcePoint" />
          </mxGeometry>
        </mxCell>
        <mxCell id="NNe2MkwTKoM-TwKIev49-10" value="&lt;span style=&quot;color: rgb(0, 0, 0); font-family: Helvetica; font-size: 20px; font-style: normal; font-variant-ligatures: normal; font-variant-caps: normal; font-weight: 400; letter-spacing: normal; orphans: 2; text-align: center; text-indent: 0px; text-transform: none; widows: 2; word-spacing: 0px; -webkit-text-stroke-width: 0px; background-color: rgb(251, 251, 251); text-decoration-thickness: initial; text-decoration-style: initial; text-decoration-color: initial; float: none; display: inline !important;&quot;&gt;5 V&lt;/span&gt;" style="text;whiteSpace=wrap;html=1;fontSize=12;fontColor=#000000;" vertex="1" parent="1">
          <mxGeometry x="422" y="150" width="70" height="50" as="geometry" />
        </mxCell>
        <mxCell id="NNe2MkwTKoM-TwKIev49-12" style="edgeStyle=none;rounded=0;orthogonalLoop=1;jettySize=auto;html=1;fontSize=12;fontColor=#000000;endArrow=classic;endFill=1;entryX=0.5;entryY=0;entryDx=0;entryDy=0;entryPerimeter=0;" edge="1" parent="1" target="NNe2MkwTKoM-TwKIev49-6">
          <mxGeometry relative="1" as="geometry">
            <mxPoint x="450" y="130" as="targetPoint" />
            <mxPoint x="440" y="180" as="sourcePoint" />
          </mxGeometry>
        </mxCell>
        <mxCell id="NNe2MkwTKoM-TwKIev49-13" style="edgeStyle=none;rounded=0;orthogonalLoop=1;jettySize=auto;html=1;exitX=0.25;exitY=0;exitDx=0;exitDy=0;fontSize=12;fontColor=#000000;endArrow=classic;endFill=1;" edge="1" parent="1" source="NNe2MkwTKoM-TwKIev49-10" target="NNe2MkwTKoM-TwKIev49-10">
          <mxGeometry relative="1" as="geometry">
            <Array as="points">
              <mxPoint x="440" y="150" />
            </Array>
          </mxGeometry>
        </mxCell>
        <mxCell id="NNe2MkwTKoM-TwKIev49-14" style="edgeStyle=none;rounded=0;orthogonalLoop=1;jettySize=auto;html=1;exitX=0.25;exitY=0;exitDx=0;exitDy=0;fontSize=12;fontColor=#000000;endArrow=classic;endFill=1;" edge="1" parent="1" source="NNe2MkwTKoM-TwKIev49-10" target="NNe2MkwTKoM-TwKIev49-10">
          <mxGeometry relative="1" as="geometry" />
        </mxCell>
      </root>
    </mxGraphModel>
  </diagram>
</mxfile>
